<!DOCTYPE svg PUBLIC "-//W3C//DTD SVG 1.1//EN" "http://www.w3.org/Graphics/SVG/1.1/DTD/svg11.dtd">
<!-- Uploaded to: SVG Repo, www.svgrepo.com, Transformed by: SVG Repo Mixer Tools -->
<svg height="800px" width="800px" version="1.1" id="Layer_1" xmlns="http://www.w3.org/2000/svg" xmlns:xlink="http://www.w3.org/1999/xlink" viewBox="0 0 512.002 512.002" xml:space="preserve" fill="#000000">
<g id="SVGRepo_bgCarrier" stroke-width="0"/>
<g id="SVGRepo_tracerCarrier" stroke-linecap="round" stroke-linejoin="round"/>
<g id="SVGRepo_iconCarrier"> <path style="fill:#8C6239;" d="M410.829,501.801c35.373,0,64.048-28.675,64.048-64.048c0-28.244-18.289-52.2-43.665-60.716 c-10.181-30.795-39.18-53.024-73.388-53.024c-12.723,0-24.716,3.094-35.3,8.538c-11.707-15.258-30.116-25.103-50.833-25.103 c-20.901,0-39.46,10.016-51.15,25.505c-10.774-5.7-23.05-8.941-36.088-8.941c-34.365,0-63.476,22.431-73.531,53.446 c-24.727,8.872-42.419,32.514-42.419,60.295c0,35.373,28.675,64.048,64.048,64.048h278.277V501.801z"/> <g> <path style="fill:#51B58B;" d="M103.133,194.633c32.701,32.701,85.721,32.701,118.423,0s32.701-85.721,0-118.423 c-21.31-21.31-98.728-48.44-150.081-64.757c-20.376-6.474-39.573,12.723-33.098,33.1C54.692,95.904,81.823,173.323,103.133,194.633 z"/> <path style="fill:#51B58B;" d="M297.969,146.354c-26.534,26.534-26.534,69.553,0,96.086s69.553,26.534,96.086,0 c17.291-17.291,39.304-80.107,52.542-121.772c5.253-16.533-10.323-32.11-26.856-26.856 C378.075,107.05,315.259,129.064,297.969,146.354z"/> </g> <path d="M439.194,369.136c-13.132-33.293-45.227-55.324-81.37-55.324c-11.31,0-22.23,2.108-32.565,6.278 c-11.554-12.091-26.645-19.799-43.123-22.101v-6.961c0-1.651-0.04-3.299-0.109-4.941c0.009-8.279,3.181-16.115,8.937-22.068 l7.431-7.686c13.985,10.766,30.795,16.171,47.617,16.171c20.011,0,40.022-7.617,55.256-22.85 c14.637-14.637,33.158-56.994,55.051-125.897c3.589-11.296,0.613-23.518-7.767-31.899c-8.379-8.38-20.603-11.355-31.899-7.767 c-68.902,21.893-111.259,40.414-125.896,55.051c-28.003,28.003-30.246,72.136-6.775,102.751l-7.684,7.949 c-0.402,0.416-0.785,0.846-1.172,1.272c-5.247-14.433-13.348-27.802-24-39.327l-15.852-17.152 c29.973-36.86,27.806-91.326-6.504-125.637c-17.77-17.769-69.652-40.4-154.204-67.264c-13.072-4.155-27.22-0.711-36.919,8.989 c-9.699,9.699-13.143,23.846-8.989,36.92c26.865,84.554,49.496,136.435,67.265,154.204c18.314,18.313,42.369,27.47,66.425,27.47 c20.689,0,41.368-6.793,58.404-20.339l15.395,16.657c16.503,17.856,25.592,41.08,25.592,65.395v6.897 c-16.844,2.232-32.234,10.082-43.939,22.49c-10.533-4.336-21.913-6.603-33.345-6.603c-36.409,0-68.603,22.261-81.594,55.88 c-26.844,11.721-44.555,38.472-44.555,68.061c0,40.941,33.307,74.248,74.248,74.248h278.278c40.941,0,74.248-33.307,74.248-74.248 C485.076,407.51,466.837,380.542,439.194,369.136z M305.181,153.566c11.786-11.786,54.667-30.023,117.649-50.034 c1.154-0.367,2.32-0.547,3.47-0.547c2.894,0,5.671,1.139,7.827,3.296c3.012,3.012,4.04,7.236,2.75,11.297 c-20.012,62.982-38.249,105.864-50.035,117.649c-20.053,20.054-51.296,22.229-73.798,6.561l54.892-54.891 c3.983-3.983,3.983-10.441,0-14.424c-3.984-3.983-10.441-3.983-14.425,0l-54.891,54.891 C282.952,204.863,285.128,173.618,305.181,153.566z M110.346,187.42C95.56,172.635,72.872,119.436,48.098,41.464 c-1.865-5.867-0.379-11.967,3.973-16.319c3.115-3.115,7.126-4.76,11.305-4.76c1.658,0,3.344,0.259,5.012,0.789 c77.971,24.773,131.17,47.461,145.956,62.248c26.224,26.224,28.447,67.481,6.701,96.274l-69.618-69.618 c-3.983-3.983-10.441-3.983-14.425,0c-3.983,3.983-3.983,10.441,0,14.425l69.618,69.618 C177.828,215.868,136.57,213.646,110.346,187.42z M410.828,491.601H132.552c-29.692,0-53.848-24.156-53.848-53.848 c0-22.668,14.332-43.041,35.662-50.694c0.235-0.084,0.457-0.19,0.682-0.29c0.263-0.063,0.526-0.138,0.788-0.223 c5.374-1.753,10.997-2.642,16.715-2.642c5.633,0,10.2-4.566,10.2-10.2c0-5.633-4.566-10.2-10.2-10.2 c-1.214,0-2.424,0.04-3.632,0.098c12.247-18.093,32.819-29.391,55.532-29.391c7.304,0,14.382,1.147,21.152,3.408 c-5.361,10.419-8.162,21.946-8.162,33.877c0,5.633,4.566,10.2,10.2,10.2c5.633,0,10.2-4.566,10.2-10.2 c0-11.425,3.529-22.335,10.207-31.553c0.09-0.124,0.164-0.255,0.248-0.381c0.13-0.153,0.262-0.302,0.385-0.464 c8.246-10.926,19.957-18.104,33.055-20.529v19.863c0,5.633,4.566,10.2,10.2,10.2c5.633,0,10.2-4.566,10.2-10.2v-19.758 c12.746,2.49,24.169,9.496,32.295,20.086c0.279,0.364,0.585,0.697,0.903,1.013c0.195,0.372,0.406,0.738,0.651,1.092 c6.25,9.019,9.554,19.61,9.554,30.631c0,5.633,4.566,10.2,10.2,10.2c5.633,0,10.2-4.566,10.2-10.2 c0-12.019-2.865-23.668-8.328-34.176c6.493-2.061,13.256-3.108,20.214-3.108c22.654,0,43.231,11.286,55.494,29.348 c-0.828-0.028-1.656-0.054-2.488-0.054c-5.633,0-10.2,4.566-10.2,10.2c0,5.633,4.566,10.2,10.2,10.2 c5.832,0,11.544,0.931,17.008,2.75c0.044,0.015,0.086,0.038,0.13,0.052c21.958,7.369,36.711,27.883,36.711,51.047 C464.677,467.445,440.521,491.601,410.828,491.601z"/> <path d="M335.871,393.117c-5.633,0-10.2,4.566-10.2,10.2v4.426c0,5.633,4.566,10.2,10.2,10.2s10.2-4.566,10.2-10.2v-4.426 C346.07,397.683,341.504,393.117,335.871,393.117z"/> <path d="M109.595,68.247c-3.983-3.983-10.441-3.983-14.425,0c-3.983,3.983-3.983,10.441,0,14.425l14.14,14.14 c1.992,1.992,4.602,2.987,7.212,2.987c2.61,0,5.221-0.995,7.212-2.987c3.983-3.983,3.983-10.441,0-14.425L109.595,68.247z"/> </g>
</svg>